<svg width="36" height="36" viewBox="0 0 36 36" fill="none" xmlns="http://www.w3.org/2000/svg">
    <path d="M17.1896 20.595C19.5175 20.595 21.4046 18.7079 21.4046 16.38C21.4046 14.0522 19.5175 12.165 17.1896 12.165C14.8617 12.165 12.9746 14.0522 12.9746 16.38C12.9746 18.7079 14.8617 20.595 17.1896 20.595Z" stroke="black" stroke-width="1.5" stroke-linecap="round" stroke-linejoin="round"/>
    <path d="M24.9748 30.3001C24.9748 26.8051 21.4948 23.9551 17.1898 23.9551C12.8848 23.9551 9.40479 26.7901 9.40479 30.3001" stroke="black" stroke-width="1.5" stroke-linecap="round" stroke-linejoin="round"/>
    <path d="M31.5 18.75C31.5 26.625 25.125 33 17.25 33C9.375 33 3 26.625 3 18.75C3 10.875 9.375 4.5 17.25 4.5C19.215 4.5 21.09 4.88999 22.8 5.60999C22.605 6.20999 22.5 6.84 22.5 7.5C22.5 8.625 22.815 9.69 23.37 10.59C23.67 11.1 24.06 11.565 24.51 11.955C25.56 12.915 26.955 13.5 28.5 13.5C29.16 13.5 29.79 13.395 30.375 13.185C31.095 14.895 31.5 16.785 31.5 18.75Z" stroke="black" stroke-width="1.5" stroke-linecap="round" stroke-linejoin="round"/>
    <path d="M34.5 7.5C34.5 7.98 34.44 8.44499 34.32 8.89499C34.185 9.49499 33.945 10.08 33.63 10.59C32.91 11.805 31.755 12.75 30.375 13.185C29.79 13.395 29.16 13.5 28.5 13.5C26.955 13.5 25.56 12.915 24.51 11.955C24.06 11.565 23.67 11.1 23.37 10.59C22.815 9.69 22.5 8.625 22.5 7.5C22.5 6.84 22.605 6.20999 22.8 5.60999C23.085 4.73999 23.565 3.96003 24.195 3.31503C25.29 2.19003 26.82 1.5 28.5 1.5C30.27 1.5 31.875 2.26503 32.955 3.49503C33.915 4.56003 34.5 5.97 34.5 7.5Z" stroke="black" stroke-width="1.5" stroke-miterlimit="10" stroke-linecap="round" stroke-linejoin="round"/>
    <path d="M30.7351 7.4707H26.2651" stroke="black" stroke-width="1.5" stroke-miterlimit="10" stroke-linecap="round" stroke-linejoin="round"/>
    <path d="M28.5 5.28027V9.76526" stroke="black" stroke-width="1.5" stroke-miterlimit="10" stroke-linecap="round" stroke-linejoin="round"/>
</svg>
