<svg width="176" height="173" viewBox="0 0 176 173" fill="none" xmlns="http://www.w3.org/2000/svg">
    <path d="M40.625 27.538H69.2498L86.8027 9.98506L104.356 27.538H133.521" stroke="white" stroke-width="14.0424"/>
    <path d="M40.625 145.257H69.2498L86.8027 162.81L104.356 145.257H133.521" stroke="white" stroke-width="14.0424"/>
    <path d="M147.957 40.6248L147.957 69.2496L165.51 86.8025L147.957 104.355L147.957 133.52" stroke="white" stroke-width="14.0424"/>
    <path d="M27.5381 40.6248L27.5381 69.2496L9.98511 86.8025L27.5381 104.355L27.5381 133.52" stroke="white" stroke-width="14.0424"/>
    <path d="M60.6085 47.376H127.31V132.98" stroke="white" stroke-width="14.0424"/>
    <path d="M114.077 125.959H47.646V40.3545" stroke="white" stroke-width="14.0424"/>
    <path fill-rule="evenodd" clip-rule="evenodd" d="M106.138 78.0925C106.138 78.3389 106.236 78.5752 106.409 78.7496L113.923 86.2629L106.409 93.7761C106.236 93.9497 106.138 94.1865 106.138 94.4332V105.058H95.5131C95.3908 105.058 95.2698 105.082 95.1568 105.129C95.0438 105.176 94.9412 105.245 94.8548 105.331L87.3429 112.843L79.8298 105.331C79.655 105.156 79.4195 105.058 79.1727 105.058H68.5478V94.4332C68.5478 94.1865 68.4499 93.9497 68.275 93.7761L60.762 86.2629L68.275 78.7496C68.4499 78.576 68.5478 78.3392 68.5478 78.0925V67.4674H79.1727C79.2948 67.4673 79.4157 67.4432 79.5285 67.3964C79.6412 67.3496 79.7436 67.281 79.8298 67.1946L87.3429 59.6826L94.856 67.1946C95.0296 67.3694 95.2664 67.4674 95.5131 67.4674H106.138V78.0925ZM88.552 107.25L87.7594 107.977C87.8463 107.933 87.9276 107.875 87.9999 107.802L88.552 107.25ZM86.9211 107.974L86.1468 107.264L86.6845 107.802C86.7559 107.873 86.8359 107.931 86.9211 107.974ZM108.333 87.4683L109.055 86.6812C109.011 86.7688 108.952 86.8496 108.882 86.92L108.333 87.4683ZM86.6845 64.7237L86.2982 65.1099L87.2419 64.4566C87.1541 64.4661 87.0681 64.4881 86.9862 64.522C86.8734 64.5688 86.7708 64.6373 86.6845 64.7237Z" fill="white"/>
</svg>
